<svg id="Layer_1" data-name="Layer 1" xmlns="http://www.w3.org/2000/svg" viewBox="0 0 454.19 176.95"><defs><style>.cls-1{fill:#231f20;}.cls-2{fill:#010101;}.cls-3{fill:#ef4650;}</style></defs><rect class="cls-1" y="127" width="348.61" height="25.58"/><g id="Layer_3" data-name="Layer 3"><path d="M448.67,135.38s3.15-39.54-16.15-39.27c0,0-2.38-41.45-33-52.53-24-8.69-44.23-7.32-44.23-7.32l-.48,88,36.75.48s20.69,3.82,20.53,27.2L456,151.6l.32-14.47Zm-81-42-.58-45.46s52.29-2.11,56.1,45.3Zm56.48,16.06,15.91.64,3.18,24.82S429.9,131.08,424.17,109.44Z" transform="translate(-2.12 -1.22)"/></g><path class="cls-1" d="M66.33,1.39h30C110,3.24,113,16.88,112.32,29.58l-.71,5c-1.25,10.95-11.36,20.49-19.16,22.67l5.85,1.13c8.06,3.54,3.85,13,2.47,25L97.62,97.94a36.69,36.69,0,0,0,1.6,14.36L81,111.59c-.6-2.84.34-8.36,1.33-17l2.93-17.31c1.13-9.88-1.4-9.7-9-10.57H71.54L63.77,112.3H46.68Zm18.48,49.1C90,50.65,95.66,46.67,96.52,38l.28-6.69c1-9.54-3.32-12.28-9.25-13l-8.26-.14L74.73,50.37Z" transform="translate(-2.12 -1.22)"/><path class="cls-1" d="M139.36,1.39h23.92L159,112.3H140.35l2.14-23-.06.3-16.31-.93-6.55,23.63H104.05Zm4.13,74.75L149,13.21l-1.71-.29L129.39,75.43Z" transform="translate(-2.12 -1.22)"/><path class="cls-1" d="M164.13,86.78l12.59-62.62C180.26,8,193.43-1.54,209.27,1.93s19.41,16.71,15.87,32.85L224,40.12l-15.51.71,1.36-10.5c1.51-6.88-1.16-10.44-6.09-11.52s-8.84,1-10.35,7.91L180.57,85.15c-1.51,6.88,1.19,10.29,6.12,11.37s8.81-.89,10.32-7.76L202.75,69,218,70.17,212.81,91c-3.54,16.14-7.65,22.88-29.82,21.33C164.8,111,160.59,102.92,164.13,86.78Z" transform="translate(-2.12 -1.22)"/><polygon class="cls-1" points="42.03 121.03 44.09 113.18 286.08 113.18 290.54 101.4 232.63 100.45 242.81 68.95 276.86 68.95 281.95 56.86 246.63 56.54 258.72 25.67 328.08 25.67 334.45 11.99 238.67 12.31 241.54 0.85 354.49 0.85 354.18 121.77 42.03 121.03"/><path class="cls-1" d="M380.74,129.49a24.34,24.34,0,1,0,24.34,24.34A24.35,24.35,0,0,0,380.74,129.49Zm-.6,34.83a10.92,10.92,0,1,1,10.92-10.91A10.92,10.92,0,0,1,380.14,164.32Z" transform="translate(-2.12 -1.22)"/><path class="cls-2" d="M50.27,23.86c0-12.1-9.63-22.06-21.41-22.06A20.85,20.85,0,0,0,12.69,9.41V1.8H7.44V62h5.25V38.32A20.79,20.79,0,0,0,28.86,46C40.64,46,50.27,36.07,50.27,23.86ZM28.86,40.78c-8.79,0-15.85-7.17-16.17-16.28v-.64c0-9.31,7.17-16.81,16.17-16.81S45,14.55,45,23.86,37.74,40.78,28.86,40.78Z" transform="translate(-2.12 -1.22)"/><path class="cls-3" d="M40.85,115.1a10.6,10.6,0,0,0-4.5-9.32,17.07,17.07,0,0,0-2.78-1.71,51.64,51.64,0,0,0-7.93-2.36,7.38,7.38,0,0,1-1.71-.43,21.53,21.53,0,0,1-6.85-2.89,5,5,0,0,1-2.15-4.07,6.35,6.35,0,0,1,2.79-4.49c1.93-1.5,4.82-2.15,8-2,3.64.11,6.43,2,9.42,4.18l.32.21,3.75-3.53a8.45,8.45,0,0,0-1.82-1.39c-3-2-6.64-4.18-11.56-4.39a18.32,18.32,0,0,0-11,2.57C11.62,87.58,9.58,90.68,9.58,94a8.76,8.76,0,0,0,3,7.18c3,2.89,7.6,4.39,11.78,5.14,3.64.75,7,2,8.67,3.42,2,1.82,2.68,3.22,2.68,5.14a6.37,6.37,0,0,1-3.32,4.82,13.13,13.13,0,0,1-8,2.25c-4.07-.21-8.25-1.93-12.42-5.25l-.32-.21-3.75,3.43.32.32c4.92,4.17,10.17,6.53,15.85,6.85A18.13,18.13,0,0,0,35.28,124c3.43-2.36,5.36-5.47,5.57-8.89" transform="translate(-2.12 -1.22)"/></svg>